<svg width="310" height="310" viewBox="0 0 310 310" fill="none" xmlns="http://www.w3.org/2000/svg">
<path d="M33.7847 171.137C33.7847 203.695 46.7183 234.919 69.7402 257.941C92.7622 280.963 123.987 293.897 156.545 293.897C189.103 293.897 220.327 280.963 243.349 257.941C266.371 234.919 279.305 203.695 279.305 171.137C279.305 138.579 266.371 107.354 243.349 84.3324C220.327 61.3104 189.103 48.3768 156.545 48.3768C123.987 48.3768 92.7622 61.3104 69.7402 84.3324C46.7183 107.354 33.7847 138.579 33.7847 171.137Z" fill="#FAE9F8" stroke="#FAE9F8" stroke-width="3.1"/>
<path d="M227.089 90.7227C226.307 92.9638 224.847 94.9061 222.912 96.2805C220.977 97.6548 218.662 98.3932 216.289 98.3932C213.915 98.3932 211.601 97.6548 209.665 96.2805C207.73 94.9061 206.271 92.9638 205.489 90.7227H64.588C62.5532 90.7227 60.6016 91.5311 59.1628 92.97C57.7239 94.4088 56.9155 96.3604 56.9155 98.3952V190.435C56.9155 192.469 57.7239 194.421 59.1628 195.86C60.6016 197.299 62.5532 198.107 64.588 198.107H205.489C206.271 195.866 207.73 193.924 209.665 192.549C211.601 191.175 213.915 190.437 216.289 190.437C218.662 190.437 220.977 191.175 222.912 192.549C224.847 193.924 226.307 195.866 227.089 198.107H254.639C256.674 198.107 258.625 197.299 260.064 195.86C261.503 194.421 262.311 192.469 262.311 190.435V98.3922C262.311 96.3573 261.503 94.4058 260.064 92.9669C258.625 91.528 256.674 90.7197 254.639 90.7197L227.089 90.7227Z" fill="white"/>
<path d="M254.639 90.7229H227.089C226.307 92.9639 224.847 94.9062 222.912 96.2806C220.977 97.655 218.662 98.3933 216.289 98.3933C213.915 98.3933 211.601 97.655 209.665 96.2806C207.73 94.9062 206.271 92.9639 205.489 90.7229H64.588C62.5532 90.7229 60.6016 91.5313 59.1628 92.9701C57.7239 94.409 56.9155 96.3605 56.9155 98.3954V113.74H262.308V98.3954C262.308 96.3611 261.5 94.41 260.062 92.9712C258.624 91.5324 256.673 90.7237 254.639 90.7229Z" fill="#FF6242"/>
<path d="M254.639 90.7229H227.089C226.307 92.9639 224.847 94.9062 222.912 96.2806C220.977 97.655 218.662 98.3933 216.289 98.3933C213.915 98.3933 211.601 97.655 209.665 96.2806C207.73 94.9062 206.271 92.9639 205.489 90.7229H64.588C62.5532 90.7229 60.6016 91.5313 59.1628 92.9701C57.7239 94.409 56.9155 96.3605 56.9155 98.3954V113.74H262.308V98.3954C262.308 96.3611 261.5 94.41 260.062 92.9712C258.624 91.5324 256.673 90.7237 254.639 90.7229Z" fill="#FF6242"/>
<path d="M254.639 90.7229H227.089C226.307 92.9639 224.847 94.9062 222.912 96.2806C220.977 97.655 218.662 98.3933 216.289 98.3933C213.915 98.3933 211.601 97.655 209.665 96.2806C207.73 94.9062 206.271 92.9639 205.489 90.7229H64.588C62.5532 90.7229 60.6016 91.5313 59.1628 92.9701C57.7239 94.409 56.9155 96.3605 56.9155 98.3954V113.74H262.308V98.3954C262.308 96.3611 261.5 94.41 260.062 92.9712C258.624 91.5324 256.673 90.7237 254.639 90.7229Z" stroke="#45413C" stroke-width="3.1" stroke-linecap="round" stroke-linejoin="round"/>
<path d="M227.089 90.7227C226.307 92.9638 224.847 94.9061 222.912 96.2805C220.977 97.6548 218.662 98.3932 216.289 98.3932C213.915 98.3932 211.601 97.6548 209.665 96.2805C207.73 94.9061 206.271 92.9638 205.489 90.7227H64.588C62.5532 90.7227 60.6016 91.5311 59.1628 92.97C57.7239 94.4088 56.9155 96.3604 56.9155 98.3952V190.435C56.9155 192.469 57.7239 194.421 59.1628 195.86C60.6016 197.299 62.5532 198.107 64.588 198.107H205.489C206.271 195.866 207.73 193.924 209.665 192.549C211.601 191.175 213.915 190.437 216.289 190.437C218.662 190.437 220.977 191.175 222.912 192.549C224.847 193.924 226.307 195.866 227.089 198.107H254.639C256.674 198.107 258.625 197.299 260.064 195.86C261.503 194.421 262.311 192.469 262.311 190.435V98.3922C262.311 96.3573 261.503 94.4058 260.064 92.9669C258.625 91.528 256.674 90.7197 254.639 90.7197L227.089 90.7227Z" stroke="#45413C" stroke-width="3.1" stroke-linecap="round" stroke-linejoin="round"/>
<path d="M249.258 180.921H200.669" stroke="#45413C" stroke-width="3.1" stroke-linecap="round" stroke-linejoin="round"/>
<path d="M174.672 207.446C174.672 207.77 174.608 208.091 174.484 208.39C174.359 208.689 174.177 208.96 173.947 209.189C173.717 209.417 173.444 209.597 173.144 209.72C172.844 209.842 172.523 209.904 172.199 209.901H88.1387C87.8147 209.904 87.4934 209.842 87.1934 209.72C86.8934 209.597 86.6206 209.417 86.3906 209.189C86.1607 208.96 85.9782 208.689 85.8537 208.39C85.7291 208.091 85.665 207.77 85.665 207.446V82.0374C85.665 81.7134 85.7291 81.3926 85.8537 81.0935C85.9782 80.7944 86.1607 80.523 86.3906 80.2947C86.6206 80.0665 86.8934 79.886 87.1934 79.7637C87.4934 79.6414 87.8147 79.5797 88.1387 79.5822H172.186C172.51 79.5797 172.832 79.6414 173.132 79.7637C173.432 79.886 173.704 80.0665 173.934 80.2947C174.164 80.523 174.347 80.7944 174.471 81.0935C174.596 81.3926 174.66 81.7134 174.66 82.0374L174.672 207.446Z" fill="#4ACFFF"/>
<path d="M174.672 94.5405V82.0374C174.672 81.7134 174.608 81.3926 174.484 81.0935C174.359 80.7944 174.177 80.523 173.947 80.2947C173.717 80.0665 173.444 79.886 173.144 79.7637C172.844 79.6414 172.523 79.5797 172.199 79.5822H88.1388C87.4876 79.5822 86.8631 79.8408 86.4027 80.3013C85.9423 80.7617 85.6836 81.3862 85.6836 82.0374V183.541L174.672 94.5405Z" fill="#4ACFFF"/>
<path d="M85.6699 113.734H174.674V198.104H85.6699V113.734Z" fill="#DAEDF7"/>
<path d="M85.6699 113.734V183.536L155.471 113.734H85.6699Z" fill="white"/>
<path d="M85.6699 113.734H174.674V198.104H85.6699V113.734Z" stroke="#45413C" stroke-width="3.1" stroke-linecap="round" stroke-linejoin="round"/>
<path d="M85.6699 90.7229H174.674V113.734H85.6699V90.7229Z" fill="#FF6242"/>
<path d="M85.6699 90.7229V113.734H155.471L174.674 94.5315V90.7229H85.6699Z" fill="#FFA694"/>
<path d="M174.672 207.446C174.672 207.77 174.608 208.091 174.484 208.39C174.359 208.689 174.177 208.96 173.947 209.189C173.717 209.417 173.444 209.597 173.144 209.72C172.844 209.842 172.523 209.904 172.199 209.901H88.1387C87.8147 209.904 87.4934 209.842 87.1934 209.72C86.8934 209.597 86.6206 209.417 86.3906 209.189C86.1607 208.96 85.9782 208.689 85.8537 208.39C85.7291 208.091 85.665 207.77 85.665 207.446V82.0374C85.665 81.7134 85.7291 81.3926 85.8537 81.0935C85.9782 80.7944 86.1607 80.523 86.3906 80.2947C86.6206 80.0665 86.8934 79.886 87.1934 79.7637C87.4934 79.6414 87.8147 79.5797 88.1387 79.5822H172.186C172.51 79.5797 172.832 79.6414 173.132 79.7637C173.432 79.886 173.704 80.0665 173.934 80.2947C174.164 80.523 174.347 80.7944 174.471 81.0935C174.596 81.3926 174.66 81.7134 174.66 82.0374L174.672 207.446Z" stroke="#45413C" stroke-width="3.1" stroke-linecap="round" stroke-linejoin="round"/>
<path d="M85.6699 90.7229H174.674V113.734H85.6699V90.7229Z" stroke="#45413C" stroke-width="3.1" stroke-linecap="round" stroke-linejoin="round"/>
<path d="M184.208 61.1751C184.204 59.8283 183.934 58.4956 183.414 57.2533C182.894 56.0109 182.134 54.8832 181.178 53.9346C180.222 52.986 179.089 52.2351 177.842 51.725C176.596 51.2148 175.261 50.9554 173.915 50.9614H86.4235C85.0765 50.955 83.7414 51.2141 82.4947 51.7241C81.2479 52.2341 80.1139 52.9849 79.1576 53.9335C78.2013 54.8821 77.4414 56.01 76.9214 57.2525C76.4013 58.4951 76.1314 59.8281 76.127 61.1751V234.666C76.1326 236.012 76.4033 237.344 76.9236 238.585C77.444 239.827 78.2038 240.953 79.1596 241.901C80.1154 242.849 81.2486 243.599 82.4944 244.109C83.7402 244.619 85.0743 244.879 86.4204 244.873H173.915C175.261 244.879 176.595 244.619 177.84 244.109C179.086 243.599 180.219 242.849 181.175 241.901C182.131 240.953 182.891 239.827 183.411 238.585C183.932 237.344 184.202 236.012 184.208 234.666V61.1751ZM174.673 207.447C174.673 207.771 174.608 208.091 174.484 208.391C174.359 208.69 174.177 208.961 173.947 209.189C173.717 209.418 173.444 209.598 173.144 209.72C172.844 209.843 172.523 209.904 172.199 209.902H88.139C87.8151 209.904 87.4938 209.843 87.1938 209.72C86.8938 209.598 86.621 209.418 86.391 209.189C86.1611 208.961 85.9786 208.69 85.854 208.391C85.7295 208.091 85.6654 207.771 85.6654 207.447V82.0381C85.6654 81.7141 85.7295 81.3934 85.854 81.0943C85.9786 80.7952 86.1611 80.5237 86.391 80.2955C86.621 80.0673 86.8938 79.8868 87.1938 79.7645C87.4938 79.6422 87.8151 79.5805 88.139 79.5829H172.187C172.511 79.5805 172.832 79.6422 173.132 79.7645C173.432 79.8868 173.705 80.0673 173.935 80.2955C174.165 80.5237 174.347 80.7952 174.472 81.0943C174.596 81.3934 174.66 81.7141 174.66 82.0381L174.673 207.447Z" fill="white"/>
<path d="M110.058 63.725C110.058 64.6146 110.414 65.4678 111.049 66.0969C111.684 66.726 112.545 67.0794 113.443 67.0794C114.341 67.0794 115.202 66.726 115.836 66.0969C116.471 65.4678 116.828 64.6146 116.828 63.725C116.828 62.8353 116.471 61.9821 115.836 61.353C115.202 60.724 114.341 60.3705 113.443 60.3705C112.545 60.3705 111.684 60.724 111.049 61.353C110.414 61.9821 110.058 62.8353 110.058 63.725Z" fill="#45413C"/>
<path d="M122.451 63.7249H145.609H122.451Z" fill="white"/>
<path d="M122.451 63.7249H145.609" stroke="#45413C" stroke-width="3.1" stroke-linecap="round" stroke-linejoin="round"/>
<path d="M97.9053 130.613V120.934H107.585" stroke="#009FD9" stroke-width="3.1" stroke-linecap="round" stroke-linejoin="round"/>
<path d="M162.435 130.613V120.934H152.755" stroke="#009FD9" stroke-width="3.1" stroke-linecap="round" stroke-linejoin="round"/>
<path d="M97.9053 175.786V185.466H107.585" stroke="#009FD9" stroke-width="3.1" stroke-linecap="round" stroke-linejoin="round"/>
<path d="M162.435 175.786V185.466H152.755" stroke="#009FD9" stroke-width="3.1" stroke-linecap="round" stroke-linejoin="round"/>
<path d="M104.356 127.388H117.262V140.293H104.356V127.388Z" stroke="#45413C" stroke-width="3.1" stroke-linecap="round" stroke-linejoin="round"/>
<path d="M107.585 130.614H114.039V137.068H107.585V130.614Z" fill="#45413C"/>
<path d="M104.356 166.106H117.262V179.012H104.356V166.106Z" stroke="#45413C" stroke-width="3.1" stroke-linecap="round" stroke-linejoin="round"/>
<path d="M107.585 169.336H114.039V175.79H107.585V169.336Z" fill="#45413C"/>
<path d="M143.075 127.388H155.98V140.293H143.075V127.388Z" stroke="#45413C" stroke-width="3.1" stroke-linecap="round" stroke-linejoin="round"/>
<path d="M146.304 130.614H152.758V137.068H146.304V130.614Z" fill="#45413C"/>
<path d="M123.716 127.388V140.293" stroke="#45413C" stroke-width="3.1" stroke-linecap="round" stroke-linejoin="round"/>
<path d="M130.169 127.388H136.623V140.293H130.169V133.842" stroke="#45413C" stroke-width="3.1" stroke-linecap="round" stroke-linejoin="round"/>
<path d="M104.356 146.748H117.265" stroke="#45413C" stroke-width="3.1" stroke-linecap="round" stroke-linejoin="round"/>
<path d="M104.356 153.201V159.656H110.811V153.201H117.265V159.656" stroke="#45413C" stroke-width="3.1" stroke-linecap="round" stroke-linejoin="round"/>
<path d="M123.716 146.748V159.656H139.85" stroke="#45413C" stroke-width="3.1" stroke-linecap="round" stroke-linejoin="round"/>
<path d="M130.169 146.748V153.202" stroke="#45413C" stroke-width="3.1" stroke-linecap="round" stroke-linejoin="round"/>
<path d="M123.716 166.106H130.17V172.561H123.716V179.015H130.17" stroke="#45413C" stroke-width="3.1" stroke-linecap="round" stroke-linejoin="round"/>
<path d="M136.624 153.202V146.748H146.304V159.656" stroke="#45413C" stroke-width="3.1" stroke-linecap="round" stroke-linejoin="round"/>
<path d="M152.755 146.748H155.983V159.656H152.755" stroke="#45413C" stroke-width="3.1" stroke-linecap="round" stroke-linejoin="round"/>
<path d="M155.983 166.106V179.015" stroke="#45413C" stroke-width="3.1" stroke-linecap="round" stroke-linejoin="round"/>
<path d="M136.624 166.106H149.529" stroke="#45413C" stroke-width="3.1" stroke-linecap="round" stroke-linejoin="round"/>
<path d="M136.624 172.561V179.015" stroke="#45413C" stroke-width="3.1" stroke-linecap="round" stroke-linejoin="round"/>
<path d="M143.075 172.561H149.529V179.015H143.075" stroke="#45413C" stroke-width="3.1" stroke-linecap="round" stroke-linejoin="round"/>
<path d="M249.259 163.603H218.338" stroke="#45413C" stroke-width="3.1" stroke-linecap="round" stroke-linejoin="round"/>
<path opacity="0.15" d="M78.2593 268.301C78.2593 270.096 83.6064 271.817 93.1242 273.086C102.642 274.356 115.551 275.068 129.011 275.068C142.472 275.068 155.381 274.356 164.898 273.086C174.416 271.817 179.763 270.096 179.763 268.301C179.763 266.507 174.416 264.785 164.898 263.516C155.381 262.247 142.472 261.534 129.011 261.534C115.551 261.534 102.642 262.247 93.1242 263.516C83.6064 264.785 78.2593 266.507 78.2593 268.301Z" fill="#45413C"/>
<path d="M205.807 91.42C205.807 102.874 210.357 113.859 218.456 121.958C226.555 130.057 237.54 134.607 248.994 134.607C260.448 134.607 271.433 130.057 279.532 121.958C287.631 113.859 292.181 102.874 292.181 91.42C292.181 79.9661 287.631 68.9813 279.532 60.8822C271.433 52.7831 260.448 48.233 248.994 48.233C237.54 48.233 226.555 52.7831 218.456 60.8822C210.357 68.9813 205.807 79.9661 205.807 91.42Z" fill="#6DD627"/>
<path d="M206.593 99.5155C208.475 89.6411 213.745 80.7332 221.492 74.3286C229.24 67.9239 238.98 64.424 249.032 64.4328C259.084 64.4415 268.818 67.9583 276.555 74.3764C284.292 80.7945 289.546 89.7115 291.411 99.5892C292.607 93.343 292.408 86.9099 290.83 80.7493C289.251 74.5887 286.331 68.8528 282.279 63.9513C278.227 59.0498 273.143 55.1037 267.389 52.395C261.635 49.6863 255.354 48.2817 248.994 48.2817C242.635 48.2817 236.353 49.6863 230.6 52.395C224.846 55.1037 219.761 59.0498 215.709 63.9513C211.657 68.8528 208.737 74.5887 207.159 80.7493C205.58 86.9099 205.382 93.343 206.577 99.5892" fill="#9CEB60"/>
<path d="M205.807 91.42C205.807 102.874 210.357 113.859 218.456 121.958C226.555 130.057 237.54 134.607 248.994 134.607C260.448 134.607 271.433 130.057 279.532 121.958C287.631 113.859 292.181 102.874 292.181 91.42C292.181 79.9661 287.631 68.9813 279.532 60.8822C271.433 52.7831 260.448 48.233 248.994 48.233C237.54 48.233 226.555 52.7831 218.456 60.8822C210.357 68.9813 205.807 79.9661 205.807 91.42Z" stroke="#45413C" stroke-width="3.1" stroke-linecap="round" stroke-linejoin="round"/>
<path d="M239.531 114.508C238.636 114.509 237.751 114.333 236.924 113.991C236.098 113.649 235.347 113.146 234.716 112.513L221.089 98.8866C220.437 98.2585 219.917 97.5067 219.558 96.6751C219.2 95.8435 219.011 94.9488 219.003 94.0433C218.994 93.1379 219.166 92.2398 219.509 91.4016C219.851 90.5635 220.358 89.802 220.998 89.1617C221.638 88.5214 222.4 88.0152 223.238 87.6726C224.076 87.33 224.974 87.158 225.88 87.1665C226.785 87.175 227.68 87.3639 228.511 87.7221C229.343 88.0804 230.095 88.6009 230.723 89.253L239.531 98.0611L267.269 70.3265C268.554 69.0884 270.274 68.4042 272.059 68.421C273.844 68.4377 275.55 69.1541 276.812 70.4162C278.075 71.6782 278.791 73.3851 278.808 75.1698C278.824 76.9545 278.14 78.6746 276.902 79.9601L244.349 112.513C243.717 113.146 242.966 113.648 242.139 113.991C241.312 114.333 240.426 114.509 239.531 114.508Z" fill="white" stroke="#388C00" stroke-width="3.1" stroke-linecap="round" stroke-linejoin="round"/>
<path d="M174.672 207.446C174.672 207.77 174.608 208.091 174.484 208.39C174.359 208.689 174.177 208.96 173.947 209.189C173.717 209.417 173.444 209.597 173.144 209.72C172.844 209.842 172.523 209.904 172.199 209.901H88.1387C87.8147 209.904 87.4934 209.842 87.1934 209.72C86.8934 209.597 86.6206 209.417 86.3906 209.189C86.1607 208.96 85.9782 208.689 85.8537 208.39C85.7291 208.091 85.665 207.77 85.665 207.446V82.0374C85.665 81.7134 85.7291 81.3926 85.8537 81.0935C85.9782 80.7944 86.1607 80.523 86.3906 80.2947C86.6206 80.0665 86.8934 79.886 87.1934 79.7637C87.4934 79.6414 87.8147 79.5797 88.1387 79.5822H172.186C172.51 79.5797 172.832 79.6414 173.132 79.7637C173.432 79.886 173.704 80.0665 173.934 80.2947C174.164 80.523 174.347 80.7944 174.471 81.0935C174.596 81.3926 174.66 81.7134 174.66 82.0374L174.672 207.446Z" stroke="#45413C" stroke-width="3.1" stroke-linecap="round" stroke-linejoin="round"/>
<path d="M173.915 244.873H86.4235C85.0771 244.879 83.7427 244.62 82.4965 244.11C81.2504 243.6 80.1169 242.85 79.1607 241.902C78.2045 240.954 77.4445 239.827 76.9239 238.585C76.4034 237.344 76.1326 236.012 76.127 234.665V227.011C76.1326 228.357 76.4033 229.689 76.9236 230.931C77.444 232.172 78.2038 233.299 79.1596 234.247C80.1154 235.195 81.2486 235.945 82.4944 236.455C83.7402 236.965 85.0743 237.224 86.4204 237.219H173.915C175.261 237.224 176.595 236.965 177.84 236.455C179.086 235.945 180.219 235.195 181.175 234.247C182.131 233.299 182.891 232.172 183.411 230.931C183.932 229.689 184.202 228.357 184.208 227.011V234.665C184.202 236.011 183.932 237.343 183.411 238.585C182.891 239.826 182.131 240.953 181.175 241.901C180.219 242.849 179.086 243.599 177.84 244.109C176.595 244.619 175.261 244.878 173.915 244.873Z" fill="#DAEDF7"/>
<path d="M184.208 61.1751C184.204 59.8283 183.934 58.4956 183.414 57.2533C182.894 56.0109 182.134 54.8832 181.178 53.9346C180.222 52.986 179.089 52.2351 177.842 51.725C176.596 51.2148 175.261 50.9554 173.915 50.9614H86.4235C85.0765 50.955 83.7414 51.2141 82.4947 51.7241C81.2479 52.2341 80.1139 52.9849 79.1576 53.9335C78.2013 54.8821 77.4414 56.01 76.9214 57.2525C76.4013 58.4951 76.1314 59.8281 76.127 61.1751V234.666C76.1326 236.012 76.4033 237.344 76.9236 238.585C77.444 239.827 78.2038 240.953 79.1596 241.901C80.1154 242.849 81.2486 243.599 82.4944 244.109C83.7402 244.619 85.0743 244.879 86.4204 244.873H173.915C175.261 244.879 176.595 244.619 177.84 244.109C179.086 243.599 180.219 242.849 181.175 241.901C182.131 240.953 182.891 239.827 183.411 238.585C183.932 237.344 184.202 236.012 184.208 234.666V61.1751Z" stroke="#45413C" stroke-width="3.1" stroke-linecap="round" stroke-linejoin="round"/>
<path d="M121.637 228.288C121.637 229.399 121.857 230.499 122.286 231.525C122.715 232.551 123.343 233.484 124.136 234.269C124.928 235.054 125.868 235.677 126.904 236.102C127.939 236.528 129.048 236.746 130.169 236.746C131.289 236.746 132.398 236.528 133.434 236.102C134.469 235.677 135.409 235.054 136.201 234.269C136.994 233.484 137.622 232.551 138.051 231.525C138.48 230.499 138.7 229.399 138.7 228.288C138.7 227.177 138.48 226.078 138.051 225.051C137.622 224.025 136.994 223.093 136.201 222.307C135.409 221.522 134.469 220.899 133.434 220.474C132.398 220.049 131.289 219.83 130.169 219.83C129.048 219.83 127.939 220.049 126.904 220.474C125.868 220.899 124.928 221.522 124.136 222.307C123.343 223.093 122.715 224.025 122.286 225.051C121.857 226.078 121.637 227.177 121.637 228.288Z" fill="white" stroke="#45413C" stroke-width="3.1" stroke-linecap="round" stroke-linejoin="round"/>
</svg>
