<svg width="310" height="311" viewBox="0 0 310 311" fill="none" xmlns="http://www.w3.org/2000/svg">
<path d="M8.93359 164.843C8.93359 197.401 21.8672 228.626 44.8892 251.648C67.9111 274.67 99.1356 287.603 131.694 287.603C164.252 287.603 195.476 274.67 218.498 251.648C241.52 228.626 254.454 197.401 254.454 164.843C254.454 132.285 241.52 101.061 218.498 78.0389C195.476 55.0169 164.252 42.0833 131.694 42.0833C99.1356 42.0833 67.9111 55.0169 44.8892 78.0389C21.8672 101.061 8.93359 132.285 8.93359 164.843Z" fill="#FAE9F8" stroke="#FAE9F8" stroke-width="3.1"/>
<path d="M253.626 247.682C253.626 249.798 252.785 251.828 251.289 253.324C249.792 254.82 247.763 255.661 245.646 255.661H18.123C16.0067 255.661 13.9771 254.82 12.4807 253.324C10.9842 251.828 10.1436 249.798 10.1436 247.682V83.4902H253.626V247.682Z" fill="#4ACFFF"/>
<path d="M211.322 83.4749H10.1646V247.682C10.1646 249.798 11.0052 251.828 12.5017 253.324C13.9981 254.82 16.0277 255.661 18.144 255.661H39.1451L211.322 83.4749Z" fill="#B8ECFF"/>
<path d="M253.626 67.5339C253.626 65.4176 252.785 63.388 251.289 61.8916C249.792 60.3952 247.763 59.5545 245.646 59.5545H18.123C16.0067 59.5545 13.9771 60.3952 12.4807 61.8916C10.9842 63.388 10.1436 65.4176 10.1436 67.5339V83.4743H253.626V67.5339Z" fill="white"/>
<path d="M24.6909 71.5179C24.6909 72.5752 25.1109 73.5892 25.8586 74.3369C26.6062 75.0845 27.6202 75.5045 28.6775 75.5045C29.7349 75.5045 30.7489 75.0845 31.4965 74.3369C32.2442 73.5892 32.6642 72.5752 32.6642 71.5179C32.6642 70.4606 32.2442 69.4465 31.4965 68.6989C30.7489 67.9513 29.7349 67.5312 28.6775 67.5312C27.6202 67.5312 26.6062 67.9513 25.8586 68.6989C25.1109 69.4465 24.6909 70.4606 24.6909 71.5179Z" fill="#FF6242" stroke="#FF6242" stroke-width="3.1" stroke-linecap="round" stroke-linejoin="round"/>
<path d="M39.5874 71.5179C39.5874 72.5752 40.0074 73.5892 40.7551 74.3369C41.5027 75.0845 42.5167 75.5045 43.574 75.5045C44.6314 75.5045 45.6454 75.0845 46.393 74.3369C47.1406 73.5892 47.5607 72.5752 47.5607 71.5179C47.5607 70.4606 47.1406 69.4465 46.393 68.6989C45.6454 67.9513 44.6314 67.5312 43.574 67.5312C42.5167 67.5312 41.5027 67.9513 40.7551 68.6989C40.0074 69.4465 39.5874 70.4606 39.5874 71.5179Z" fill="#FFE500" stroke="#FFE500" stroke-width="3.1" stroke-linecap="round" stroke-linejoin="round"/>
<path d="M54.481 71.5179C54.481 72.5752 54.901 73.5892 55.6486 74.3369C56.3963 75.0845 57.4103 75.5045 58.4676 75.5045C59.5249 75.5045 60.5389 75.0845 61.2866 74.3369C62.0342 73.5892 62.4542 72.5752 62.4542 71.5179C62.4542 70.4606 62.0342 69.4465 61.2866 68.6989C60.5389 67.9513 59.5249 67.5312 58.4676 67.5312C57.4103 67.5312 56.3963 67.9513 55.6486 68.6989C54.901 69.4465 54.481 70.4606 54.481 71.5179Z" fill="#6DD627" stroke="#6DD627" stroke-width="3.1" stroke-linecap="round" stroke-linejoin="round"/>
<path d="M253.626 247.682C253.626 249.798 252.785 251.828 251.289 253.324C249.792 254.82 247.763 255.661 245.646 255.661H18.123C16.0067 255.661 13.9771 254.82 12.4807 253.324C10.9842 251.828 10.1436 249.798 10.1436 247.682V83.4902H253.626V247.682Z" stroke="#45413C" stroke-width="3.1" stroke-linecap="round" stroke-linejoin="round"/>
<path d="M253.626 67.5339C253.626 65.4176 252.785 63.388 251.289 61.8916C249.792 60.3952 247.763 59.5545 245.646 59.5545H18.123C16.0067 59.5545 13.9771 60.3952 12.4807 61.8916C10.9842 63.388 10.1436 65.4176 10.1436 67.5339V83.4743H253.626V67.5339Z" stroke="#45413C" stroke-width="3.1" stroke-linecap="round" stroke-linejoin="round"/>
<path d="M134.079 127.816C134.079 118.049 130.199 108.681 123.293 101.775C116.386 94.868 107.019 90.9879 97.2514 90.9879C87.484 90.9879 78.1167 94.868 71.2101 101.775C64.3035 108.681 60.4234 118.049 60.4234 127.816C60.4239 136.992 58.4948 146.067 54.7616 154.449C51.0283 162.832 45.5742 170.336 38.7532 176.475L32.7472 181.895C32.3898 182.214 32.1122 182.613 31.9367 183.059C31.7612 183.505 31.6926 183.986 31.7365 184.464C31.7804 184.941 31.9354 185.401 32.1893 185.808C32.4431 186.215 32.7887 186.556 33.1983 186.805C55.4644 200.426 81.0593 207.634 107.161 207.634L132.542 206.1L134.079 127.816Z" fill="#FFE500"/>
<path d="M34.4259 187.418L40.432 182.014C47.2534 175.875 52.7079 168.371 56.4417 159.989C60.1755 151.606 62.1051 142.532 62.1052 133.355C62.1014 124.762 65.1042 116.438 70.5933 109.826C76.0825 103.214 83.7119 98.7311 92.1593 97.1539C100.607 95.5768 109.34 97.005 116.845 101.191C124.35 105.377 130.154 112.056 133.251 120.072C131.334 111.188 126.199 103.327 118.836 98.0006C111.472 92.6741 102.398 90.2586 93.3608 91.2187C84.3233 92.1788 75.96 96.4467 69.8796 103.202C63.7992 109.956 60.4312 118.721 60.4234 127.809C60.4239 136.986 58.4948 146.06 54.7616 154.443C51.0283 162.825 45.5742 170.33 38.7532 176.468L32.7472 181.894C32.3898 182.214 32.1122 182.613 31.9367 183.059C31.7612 183.505 31.6926 183.986 31.7365 184.463C31.7804 184.94 31.9354 185.401 32.1893 185.807C32.4431 186.214 32.7887 186.556 33.1983 186.805C33.5942 187.047 34.0055 187.25 34.4014 187.486L34.4259 187.418Z" fill="#FFF48C"/>
<path d="M134.079 127.816C134.079 118.049 130.199 108.681 123.293 101.775C116.386 94.868 107.019 90.9879 97.2514 90.9879C87.484 90.9879 78.1167 94.868 71.2101 101.775C64.3035 108.681 60.4234 118.049 60.4234 127.816C60.4239 136.992 58.4948 146.067 54.7616 154.449C51.0283 162.832 45.5742 170.336 38.7532 176.475L32.7472 181.895C32.3898 182.214 32.1122 182.613 31.9367 183.059C31.7612 183.505 31.6926 183.986 31.7365 184.464C31.7804 184.941 31.9354 185.401 32.1893 185.808C32.4431 186.215 32.7887 186.556 33.1983 186.805C55.4644 200.426 81.0593 207.634 107.161 207.634L132.542 206.1L134.079 127.816Z" stroke="#45413C" stroke-width="3.1" stroke-linecap="round" stroke-linejoin="round"/>
<path d="M238.619 121.856C238.619 130.137 241.908 138.079 247.764 143.935C253.62 149.791 261.562 153.08 269.843 153.08C278.124 153.08 286.066 149.791 291.921 143.935C297.777 138.079 301.067 130.137 301.067 121.856C301.067 113.575 297.777 105.633 291.921 99.7776C286.066 93.9219 278.124 90.6323 269.843 90.6323C261.562 90.6323 253.62 93.9219 247.764 99.7776C241.908 105.633 238.619 113.575 238.619 121.856Z" fill="white"/>
<path d="M280.658 118.04C279.696 118.038 278.769 117.674 278.062 117.021C277.355 116.368 276.919 115.473 276.84 114.514C276.481 110.294 275.039 105.215 272.448 105.215C269.969 105.215 269.404 106.532 269.404 108.49C269.404 114.493 267.388 120.766 262.345 120.766V133.315H262.99C266.135 133.315 267.627 135.497 273.262 135.497H280.919C282.125 135.497 282.76 134.469 283.101 133.315C283.521 131.915 288.269 121.426 288.269 120.219C288.269 119.641 288.039 119.086 287.63 118.676C287.221 118.267 286.666 118.037 286.087 118.037L280.658 118.04Z" fill="#FFCEBF" stroke="#45413C" stroke-width="3.1" stroke-linecap="round" stroke-linejoin="round"/>
<path d="M239.067 116.543C238.768 118.298 238.618 120.075 238.619 121.855C238.619 130.137 241.908 138.079 247.764 143.934C253.62 149.79 261.562 153.079 269.843 153.079C278.124 153.079 286.066 149.79 291.921 143.934C297.777 138.079 301.067 130.137 301.067 121.855C301.067 120.075 300.918 118.298 300.619 116.543C299.417 123.839 295.664 130.47 290.027 135.255C284.39 140.04 277.236 142.666 269.843 142.666C262.449 142.666 255.295 140.04 249.659 135.255C244.022 130.47 240.268 123.839 239.067 116.543Z" fill="#DAEDF7"/>
<path d="M238.619 121.856C238.619 130.137 241.908 138.079 247.764 143.935C253.62 149.791 261.562 153.08 269.843 153.08C278.124 153.08 286.066 149.791 291.921 143.935C297.777 138.079 301.067 130.137 301.067 121.856C301.067 113.575 297.777 105.633 291.921 99.7776C286.066 93.9219 278.124 90.6323 269.843 90.6323C261.562 90.6323 253.62 93.9219 247.764 99.7776C241.908 105.633 238.619 113.575 238.619 121.856Z" stroke="#45413C" stroke-width="3.1" stroke-linecap="round" stroke-linejoin="round"/>
<path d="M251.426 118.587H262.34V135.503H251.426V118.587Z" fill="#00B8F0" stroke="#45413C" stroke-width="3.1" stroke-linecap="round" stroke-linejoin="round"/>
<path d="M91.7976 185.147C91.3233 187.028 90.1215 188.643 88.4565 189.637C86.7914 190.632 84.7996 190.924 82.9189 190.45L74.2736 188.271C63.327 185.538 53.1407 180.364 44.4775 173.136C35.8143 165.908 28.8988 156.813 24.2489 146.533C23.4455 144.768 23.376 142.757 24.0558 140.941C24.7355 139.125 26.1087 137.654 27.8734 136.85C29.638 136.047 31.6495 135.978 33.4654 136.657C35.2812 137.337 36.7527 138.71 37.5561 140.475C41.3013 148.754 46.8711 156.079 53.8483 161.901C60.8256 167.723 69.0296 171.891 77.8459 174.093L86.4943 176.272C88.3742 176.746 89.9888 177.947 90.9832 179.612C91.9777 181.276 92.2706 183.267 91.7976 185.147Z" fill="#FFCEBF" stroke="#45413C" stroke-width="3.1" stroke-linecap="round" stroke-linejoin="round"/>
<path d="M51.1875 180.106C58.8904 185.584 67.5463 189.579 76.7124 191.888V255.652H132.289V229.336H149.834V222.022C149.834 216.069 148.661 210.173 146.383 204.673C144.104 199.173 140.764 194.175 136.553 189.966C132.343 185.757 127.344 182.419 121.843 180.142C116.342 177.865 110.447 176.694 104.493 176.696H95.5929C83.8227 176.721 72.3158 173.214 62.5612 166.627L51.1875 180.106Z" fill="#FF87AF"/>
<path d="M56.707 173.556C67.1536 180.738 79.5386 184.569 92.2154 184.54H101.686C113.87 184.545 125.597 189.174 134.5 197.49C143.403 205.807 148.818 217.193 149.652 229.348H149.82V222.022C149.82 210.001 145.045 198.472 136.545 189.972C128.045 181.471 116.516 176.696 104.494 176.696H95.5943C83.8241 176.721 72.3172 173.214 62.5627 166.627L56.7316 173.55" fill="#FFB0CA"/>
<path d="M51.1875 180.106C58.8904 185.584 67.5463 189.579 76.7124 191.888V255.652H132.289V229.336H149.834V222.022C149.834 216.069 148.661 210.173 146.383 204.673C144.104 199.173 140.764 194.175 136.553 189.966C132.343 185.757 127.344 182.419 121.843 180.142C116.342 177.865 110.447 176.694 104.493 176.696H95.5929C83.8227 176.721 72.3158 173.214 62.5612 166.627L51.1875 180.106Z" stroke="#45413C" stroke-width="3.1" stroke-linecap="round" stroke-linejoin="round"/>
<path d="M132.29 204.562C134.567 208.293 135.771 212.578 135.771 216.949C135.771 221.319 134.567 225.605 132.29 229.335" stroke="#45413C" stroke-width="3.1" stroke-linecap="round" stroke-linejoin="round"/>
<path d="M114.73 178.16C114.73 180.874 113.651 183.478 111.732 185.397C109.812 187.317 107.209 188.395 104.494 188.395C101.78 188.395 99.1765 187.317 97.2571 185.397C95.3376 183.478 94.2593 180.874 94.2593 178.16V167.925H114.73V178.16Z" fill="#FFCEBF"/>
<path d="M114.73 178.117C108.053 180.122 100.935 180.122 94.2593 178.117V167.925H114.73V178.117Z" fill="#FFB59E"/>
<path d="M114.73 178.16V167.925H94.2593V178.16C94.2593 183.81 101.91 188.395 107.563 188.395C113.216 188.395 114.73 183.81 114.73 178.16Z" stroke="#45413C" stroke-width="3.1" stroke-linecap="round" stroke-linejoin="round"/>
<path d="M161.519 210.326V231.613C161.583 235.322 160.275 238.925 157.847 241.73C155.418 244.535 152.04 246.345 148.359 246.813C146.327 247.013 144.276 246.785 142.337 246.145C140.398 245.504 138.614 244.465 137.101 243.094C135.588 241.723 134.378 240.051 133.549 238.185C132.721 236.318 132.292 234.299 132.29 232.257V229.336H141.064C142.615 229.335 144.102 228.718 145.199 227.621C146.295 226.524 146.911 225.037 146.911 223.486V210.326H161.519Z" fill="#FFCEBF" stroke="#45413C" stroke-width="3.1" stroke-linecap="round" stroke-linejoin="round"/>
<path d="M73.9487 144.069L72.3436 136.936C70.7164 129.397 72.1332 121.521 76.2855 115.022C80.4377 108.522 86.9893 103.926 94.5138 102.234C102.038 100.542 109.927 101.891 116.462 105.987C122.996 110.083 127.649 116.595 129.406 124.105L133.567 142.611C135.835 155.967 127.006 169.603 110.497 173.301C103.67 174.832 96.519 173.862 90.3455 170.568C84.172 167.274 79.3851 161.874 76.855 155.35C76.7384 155.384 76.6341 155.439 76.5144 155.464C75.7651 155.632 74.9901 155.652 74.2334 155.521C73.4767 155.389 72.7533 155.111 72.1044 154.7C70.7939 153.871 69.8665 152.555 69.5263 151.041C69.186 149.528 69.4608 147.942 70.2902 146.632C71.1196 145.321 72.4356 144.394 73.9487 144.053V144.069Z" fill="#FFCEBF"/>
<path d="M73.9487 144.069L72.3436 136.936C70.7164 129.397 72.1332 121.521 76.2855 115.022C80.4377 108.522 86.9893 103.926 94.5138 102.234C102.038 100.542 109.927 101.891 116.462 105.987C122.996 110.083 127.649 116.595 129.406 124.105L133.567 142.611C135.835 155.967 127.006 169.603 110.497 173.301C103.67 174.832 96.519 173.862 90.3455 170.568C84.172 167.274 79.3851 161.874 76.855 155.35C76.7384 155.384 76.6341 155.439 76.5144 155.464C75.7651 155.632 74.9901 155.652 74.2334 155.521C73.4767 155.389 72.7533 155.111 72.1044 154.7C70.7939 153.871 69.8665 152.555 69.5263 151.041C69.186 149.528 69.4608 147.942 70.2902 146.631C71.1196 145.321 72.4356 144.394 73.9487 144.053V144.069Z" stroke="#45413C" stroke-width="3.1" stroke-linecap="round" stroke-linejoin="round"/>
<path d="M93.7031 151.542C93.7031 152.511 94.0882 153.441 94.7737 154.126C95.4592 154.812 96.3889 155.197 97.3583 155.197C98.3277 155.197 99.2574 154.812 99.9429 154.126C100.628 153.441 101.013 152.511 101.013 151.542C101.013 150.572 100.628 149.643 99.9429 148.957C99.2574 148.272 98.3277 147.886 97.3583 147.886C96.3889 147.886 95.4592 148.272 94.7737 148.957C94.0882 149.643 93.7031 150.572 93.7031 151.542Z" fill="#FFB59E"/>
<path d="M102.689 133.122C102.858 134.046 102.751 135 102.38 135.863C102.009 136.727 101.391 137.461 100.604 137.975C99.8172 138.488 98.8959 138.757 97.9563 138.748C97.0167 138.739 96.1006 138.453 95.3232 137.925" stroke="#45413C" stroke-width="3.1" stroke-linecap="round" stroke-linejoin="round"/>
<path d="M115.103 130.335C115.345 131.245 115.85 132.062 116.556 132.684C117.262 133.306 118.136 133.706 119.068 133.832C120.001 133.959 120.949 133.806 121.795 133.394C122.641 132.982 123.346 132.329 123.822 131.517" stroke="#45413C" stroke-width="3.1" stroke-linecap="round" stroke-linejoin="round"/>
<path d="M124.951 149.652C125.541 152.28 125.064 155.035 123.623 157.31C122.183 159.586 119.897 161.196 117.269 161.787C114.641 162.377 111.887 161.9 109.611 160.459C107.335 159.019 105.725 156.733 105.134 154.105C103.907 148.633 123.72 144.18 124.951 149.652Z" fill="#FF6242" stroke="#45413C" stroke-width="3.1" stroke-linecap="round" stroke-linejoin="round"/>
<path d="M155.454 169.879C155.996 172.425 155.772 175.074 154.808 177.492C153.845 179.91 152.187 181.988 150.043 183.463C147.898 184.939 145.365 185.745 142.762 185.781C140.16 185.816 137.605 185.079 135.422 183.663C133.238 182.247 131.523 180.215 130.495 177.824C129.466 175.433 129.169 172.791 129.642 170.232C130.115 167.672 131.336 165.311 133.151 163.445C134.966 161.58 137.293 160.294 139.839 159.752C141.529 159.391 143.274 159.367 144.973 159.681C146.673 159.995 148.294 160.641 149.744 161.581C151.194 162.522 152.444 163.738 153.424 165.162C154.404 166.586 155.093 168.189 155.454 169.879Z" fill="#ADC4D9"/>
<path d="M155.454 169.879C155.075 168.094 154.328 166.406 153.262 164.925C152.195 163.443 150.833 162.2 149.26 161.273C147.687 160.347 145.938 159.758 144.126 159.543C142.313 159.329 140.475 159.494 138.73 160.028C136.984 160.563 135.369 161.454 133.986 162.646C132.604 163.838 131.485 165.305 130.7 166.953C129.915 168.601 129.481 170.394 129.427 172.219C129.372 174.044 129.698 175.86 130.383 177.552C130.63 174.601 131.864 171.821 133.886 169.658C135.908 167.496 138.6 166.079 141.527 165.636C144.454 165.193 147.445 165.749 150.017 167.216C152.588 168.683 154.59 170.974 155.699 173.718C155.807 172.434 155.724 171.14 155.454 169.879Z" fill="#ADC4D9"/>
<path d="M155.454 169.879C155.996 172.425 155.772 175.074 154.808 177.492C153.845 179.91 152.187 181.988 150.043 183.463C147.898 184.939 145.365 185.745 142.762 185.781C140.16 185.816 137.605 185.079 135.422 183.663C133.238 182.247 131.523 180.215 130.495 177.824C129.466 175.433 129.169 172.791 129.642 170.232C130.115 167.672 131.336 165.311 133.151 163.445C134.966 161.58 137.293 160.294 139.839 159.752C141.529 159.391 143.274 159.367 144.973 159.681C146.673 159.995 148.294 160.641 149.744 161.581C151.194 162.522 152.444 163.738 153.424 165.162C154.404 166.586 155.093 168.189 155.454 169.879Z" stroke="#45413C" stroke-width="3.1" stroke-linecap="round" stroke-linejoin="round"/>
<path d="M159.296 222.166C159.421 222.909 159.253 223.671 158.83 224.293C158.406 224.916 157.759 225.351 157.022 225.508L151.047 226.782C150.312 226.941 149.543 226.809 148.903 226.414C148.262 226.019 147.799 225.392 147.61 224.664L138.792 189.856L153.094 186.833L159.296 222.166Z" fill="#87898C" stroke="#45413C" stroke-width="3.1" stroke-linecap="round" stroke-linejoin="round"/>
<path d="M155.306 183.361C155.387 183.736 155.392 184.124 155.322 184.502C155.253 184.879 155.109 185.24 154.901 185.562C154.692 185.884 154.421 186.162 154.105 186.38C153.789 186.598 153.432 186.752 153.057 186.832L138.792 189.855C138.042 189.997 137.266 189.841 136.629 189.418C135.993 188.996 135.547 188.342 135.387 187.595C135.227 186.849 135.365 186.069 135.772 185.423C136.178 184.777 136.822 184.315 137.565 184.137L151.829 181.111C152.588 180.95 153.379 181.096 154.03 181.518C154.681 181.94 155.138 182.602 155.3 183.361H155.306Z" fill="#87898C" stroke="#45413C" stroke-width="3.1" stroke-linecap="round" stroke-linejoin="round"/>
<path d="M139.839 159.761L144.722 182.64" stroke="#45413C" stroke-width="3.1" stroke-linecap="round" stroke-linejoin="round"/>
<path d="M129.533 170.929L153.806 165.749" stroke="#45413C" stroke-width="3.1" stroke-linecap="round" stroke-linejoin="round"/>
<path d="M130.648 178.168L155.746 172.81" stroke="#45413C" stroke-width="3.1" stroke-linecap="round" stroke-linejoin="round"/>
<path d="M140.371 202.072C140.305 200.479 140.818 198.917 141.815 197.672C142.812 196.428 144.225 195.586 145.794 195.302L153.81 193.746C154.457 193.62 155.122 193.623 155.768 193.755C156.414 193.886 157.027 194.143 157.573 194.512C158.12 194.88 158.588 195.353 158.952 195.902C159.316 196.452 159.568 197.068 159.693 197.714L161.611 207.569C161.737 208.216 161.734 208.882 161.603 209.528C161.471 210.174 161.214 210.788 160.845 211.335C160.476 211.881 160.003 212.35 159.453 212.714C158.904 213.078 158.287 213.33 157.64 213.455L149.627 215.014C148.067 215.337 146.442 215.084 145.053 214.304C143.664 213.523 142.604 212.267 142.068 210.767C141.132 207.953 140.561 205.031 140.371 202.072Z" fill="#FFCEBF"/>
<path d="M23.3647 223.485H59.0756V244.628H23.3647V223.485Z" fill="#FF6242"/>
<path d="M28.0852 230.507C28.0773 230.359 28.0997 230.21 28.151 230.071C28.2023 229.932 28.2813 229.805 28.3834 229.697C28.4855 229.589 28.6084 229.504 28.7447 229.445C28.881 229.386 29.0278 229.356 29.1762 229.356C29.3245 229.356 29.4713 229.386 29.6076 229.445C29.7439 229.504 29.8669 229.589 29.969 229.697C30.071 229.805 30.1501 229.932 30.2014 230.071C30.2527 230.21 30.2751 230.359 30.2672 230.507V237.814H32.8544C32.9943 237.805 33.1345 237.826 33.2657 237.875C33.3969 237.925 33.5161 238.001 33.6154 238.1C33.7146 238.199 33.7917 238.318 33.8415 238.449C33.8912 238.58 33.9125 238.721 33.904 238.86C33.8889 239.126 33.7707 239.375 33.5746 239.554C33.3785 239.734 33.1201 239.83 32.8544 239.821H29.2207C29.064 239.831 28.9072 239.806 28.7612 239.748C28.6152 239.691 28.4835 239.602 28.3753 239.488C28.2671 239.375 28.1851 239.239 28.135 239.09C28.0849 238.941 28.0679 238.783 28.0852 238.627V230.507Z" fill="white"/>
<path d="M35.1592 230.507C35.1514 230.359 35.1738 230.21 35.2251 230.071C35.2763 229.932 35.3554 229.805 35.4575 229.697C35.5596 229.589 35.6825 229.504 35.8188 229.445C35.9551 229.386 36.1019 229.356 36.2503 229.356C36.3986 229.356 36.5454 229.386 36.6817 229.445C36.818 229.504 36.941 229.589 37.043 229.697C37.1451 229.805 37.2242 229.932 37.2755 230.071C37.3268 230.21 37.3492 230.359 37.3413 230.507V238.775C37.3492 238.923 37.3268 239.071 37.2755 239.21C37.2242 239.349 37.1451 239.477 37.043 239.584C36.941 239.692 36.818 239.778 36.6817 239.836C36.5454 239.895 36.3986 239.925 36.2503 239.925C36.1019 239.925 35.9551 239.895 35.8188 239.836C35.6825 239.778 35.5596 239.692 35.4575 239.584C35.3554 239.477 35.2763 239.349 35.2251 239.21C35.1738 239.071 35.1514 238.923 35.1592 238.775V230.507Z" fill="white"/>
<path d="M38.9115 230.959C38.8416 230.789 38.8062 230.606 38.8071 230.422C38.8166 230.17 38.9134 229.929 39.0808 229.74C39.2483 229.551 39.4761 229.426 39.7254 229.387C39.9746 229.347 40.2299 229.396 40.4475 229.523C40.6651 229.651 40.8316 229.85 40.9186 230.087L43.1774 236.142L45.4362 230.078C45.5232 229.841 45.6897 229.642 45.9073 229.514C46.1249 229.386 46.3802 229.338 46.6294 229.378C46.8787 229.417 47.1065 229.542 47.274 229.731C47.4414 229.919 47.5382 230.16 47.5477 230.413C47.5502 230.597 47.5146 230.78 47.4433 230.95L44.2546 239.058C44.1942 239.297 44.0558 239.509 43.8612 239.661C43.6666 239.812 43.4271 239.895 43.1805 239.895C42.9339 239.895 42.6943 239.812 42.4998 239.661C42.3052 239.509 42.1667 239.297 42.1063 239.058L38.9115 230.959Z" fill="white"/>
<path d="M49.0165 230.728C49.0165 229.998 49.3817 229.461 50.152 229.461H53.7612C53.8966 229.451 54.0325 229.471 54.1599 229.518C54.2873 229.565 54.4034 229.638 54.5007 229.732C54.5979 229.827 54.6742 229.941 54.7245 230.067C54.7747 230.193 54.7979 230.329 54.7924 230.464C54.795 230.599 54.77 230.733 54.7188 230.858C54.6676 230.983 54.5913 231.096 54.4946 231.191C54.398 231.285 54.2831 231.359 54.1569 231.407C54.0308 231.455 53.8961 231.477 53.7612 231.471H51.1986V233.595H53.5832C53.7207 233.583 53.859 233.601 53.9892 233.647C54.1193 233.692 54.2385 233.765 54.3389 233.86C54.4392 233.954 54.5187 234.069 54.5719 234.196C54.6252 234.323 54.6512 234.46 54.6481 234.598C54.6484 234.735 54.6205 234.871 54.5663 234.997C54.5121 235.123 54.4326 235.236 54.3328 235.33C54.233 235.424 54.115 235.497 53.9861 235.544C53.8572 235.59 53.72 235.61 53.5832 235.602H51.1986V237.814H53.8901C54.0256 237.805 54.1616 237.825 54.2892 237.872C54.4167 237.918 54.533 237.991 54.6306 238.086C54.7281 238.181 54.8046 238.295 54.8552 238.421C54.9058 238.547 54.9294 238.682 54.9243 238.818C54.927 238.953 54.9019 239.087 54.8505 239.212C54.799 239.337 54.7224 239.451 54.6254 239.545C54.5284 239.639 54.4131 239.712 54.2866 239.76C54.16 239.807 54.0251 239.828 53.8901 239.822H50.1367C49.9901 239.83 49.8433 239.807 49.7058 239.756C49.5683 239.704 49.4429 239.625 49.3376 239.523C49.2324 239.42 49.1495 239.297 49.0942 239.161C49.0389 239.025 49.0125 238.879 49.0165 238.732V230.728Z" fill="white"/>
<path d="M165.607 73.5033C165.607 80.0831 166.903 86.5985 169.421 92.6775C171.939 98.7564 175.63 104.28 180.282 108.933C184.935 113.585 190.458 117.276 196.537 119.794C202.616 122.312 209.132 123.608 215.711 123.608C222.291 123.608 228.807 122.312 234.886 119.794C240.965 117.276 246.488 113.585 251.141 108.933C255.793 104.28 259.484 98.7564 262.002 92.6775C264.52 86.5985 265.816 80.0831 265.816 73.5033C265.816 66.9235 264.52 60.4081 262.002 54.3291C259.484 48.2502 255.793 42.7267 251.141 38.0741C246.488 33.4214 240.965 29.7308 234.886 27.2128C228.807 24.6948 222.291 23.3988 215.711 23.3988C209.132 23.3988 202.616 24.6948 196.537 27.2128C190.458 29.7308 184.935 33.4214 180.282 38.0741C175.63 42.7267 171.939 48.2502 169.421 54.3291C166.903 60.4081 165.607 66.9235 165.607 73.5033Z" fill="white"/>
<path d="M230.882 67.3812C229.886 67.3818 228.928 66.9957 228.211 66.3041C227.493 65.6126 227.072 64.6696 227.037 63.6738C226.779 56.6335 224.44 46.7943 219.871 46.7943C215.881 46.7943 214.988 48.9058 214.988 52.0484C214.988 61.679 211.753 71.7484 203.672 71.7484V91.8871H204.707C209.755 91.8871 212.146 95.3889 221.19 95.3889H233.466C235.403 95.3889 236.416 93.7408 236.971 91.8871C237.643 89.6406 245.257 72.8072 245.257 70.8706C245.257 69.9419 244.888 69.0512 244.232 68.3945C243.575 67.7378 242.684 67.3689 241.756 67.3689L230.882 67.3812Z" fill="#FFCEBF" stroke="#45413C" stroke-width="3.1" stroke-linecap="round" stroke-linejoin="round"/>
<path d="M166.331 64.9813C165.098 72.1721 165.452 79.5452 167.365 86.5853C169.279 93.6254 172.707 100.163 177.41 105.74C182.113 111.317 187.978 115.8 194.593 118.876C201.209 121.951 208.417 123.544 215.712 123.544C223.008 123.544 230.215 121.951 236.831 118.876C243.447 115.8 249.311 111.317 254.014 105.74C258.717 100.163 262.145 93.6254 264.059 86.5853C265.973 79.5452 266.326 72.1721 265.094 64.9813C263.171 76.691 257.15 87.3364 248.104 95.0175C239.059 102.699 227.579 106.915 215.712 106.915C203.846 106.915 192.365 102.699 183.32 95.0175C174.275 87.3364 168.253 76.691 166.331 64.9813Z" fill="#DAEDF7"/>
<path d="M165.607 73.5033C165.607 80.0831 166.903 86.5985 169.421 92.6775C171.939 98.7564 175.63 104.28 180.282 108.933C184.935 113.585 190.458 117.276 196.537 119.794C202.616 122.312 209.132 123.608 215.711 123.608C222.291 123.608 228.807 122.312 234.886 119.794C240.965 117.276 246.488 113.585 251.141 108.933C255.793 104.28 259.484 98.7564 262.002 92.6775C264.52 86.5985 265.816 80.0831 265.816 73.5033C265.816 66.9235 264.52 60.4081 262.002 54.3291C259.484 48.2502 255.793 42.7267 251.141 38.0741C246.488 33.4214 240.965 29.7308 234.886 27.2128C228.807 24.6948 222.291 23.3988 215.711 23.3988C209.132 23.3988 202.616 24.6948 196.537 27.2128C190.458 29.7308 184.935 33.4214 180.282 38.0741C175.63 42.7267 171.939 48.2502 169.421 54.3291C166.903 60.4081 165.607 66.9235 165.607 73.5033Z" stroke="#45413C" stroke-width="3.1" stroke-linecap="round" stroke-linejoin="round"/>
<path d="M186.16 68.2586H203.672V95.4008H186.16V68.2586Z" fill="#00B8F0" stroke="#45413C" stroke-width="3.1" stroke-linecap="round" stroke-linejoin="round"/>
<path d="M165.61 140.426C165.61 147.741 168.516 154.756 173.688 159.928C178.861 165.101 185.876 168.007 193.191 168.007C200.506 168.007 207.521 165.101 212.694 159.928C217.866 154.756 220.772 147.741 220.772 140.426C220.772 133.111 217.866 126.095 212.694 120.923C207.521 115.75 200.506 112.845 193.191 112.845C185.876 112.845 178.861 115.75 173.688 120.923C168.516 126.095 165.61 133.111 165.61 140.426Z" fill="white"/>
<path d="M166.006 135.734C165.328 139.692 165.522 143.751 166.576 147.626C167.63 151.502 169.517 155.1 172.106 158.171C174.695 161.241 177.923 163.708 181.565 165.401C185.207 167.094 189.175 167.971 193.191 167.971C197.207 167.971 201.175 167.094 204.817 165.401C208.459 163.708 211.687 161.241 214.276 158.171C216.865 155.1 218.752 151.502 219.806 147.626C220.86 143.751 221.054 139.692 220.376 135.734C219.316 142.179 216.001 148.038 211.021 152.265C206.042 156.492 199.723 158.813 193.191 158.813C186.659 158.813 180.34 156.492 175.361 152.265C170.381 148.038 167.066 142.179 166.006 135.734Z" fill="#DAEDF7"/>
<path d="M165.61 140.426C165.61 147.741 168.516 154.756 173.688 159.928C178.861 165.101 185.876 168.007 193.191 168.007C200.506 168.007 207.521 165.101 212.694 159.928C217.866 154.756 220.772 147.741 220.772 140.426C220.772 133.111 217.866 126.095 212.694 120.923C207.521 115.75 200.506 112.845 193.191 112.845C185.876 112.845 178.861 115.75 173.688 120.923C168.516 126.095 165.61 133.111 165.61 140.426Z" stroke="#45413C" stroke-width="3.1" stroke-linecap="round" stroke-linejoin="round"/>
<path d="M194.305 159.183C194.162 159.335 193.989 159.456 193.797 159.539C193.605 159.622 193.398 159.664 193.19 159.664C192.981 159.664 192.774 159.622 192.582 159.539C192.39 159.456 192.217 159.335 192.074 159.183L178.709 145.238C177.437 143.966 176.597 142.327 176.308 140.552C176.02 138.777 176.297 136.956 177.1 135.347C177.708 134.132 178.595 133.079 179.689 132.275C180.783 131.471 182.053 130.938 183.393 130.721C184.733 130.503 186.106 130.608 187.398 131.025C188.691 131.442 189.865 132.161 190.825 133.121L193.191 135.485L195.554 133.121C196.514 132.161 197.689 131.442 198.981 131.025C200.273 130.608 201.646 130.503 202.986 130.721C204.327 130.938 205.596 131.471 206.69 132.275C207.784 133.079 208.672 134.132 209.279 135.347C210.083 136.955 210.36 138.776 210.072 140.551C209.784 142.326 208.945 143.966 207.674 145.238L194.305 159.183Z" fill="#FF6242" stroke="#E04122" stroke-width="3.1" stroke-linecap="round" stroke-linejoin="round"/>
<path d="M200.173 181.562C200.173 191.759 204.223 201.538 211.433 208.747C218.643 215.957 228.422 220.008 238.618 220.008C248.815 220.008 258.593 215.957 265.803 208.747C273.013 201.538 277.064 191.759 277.064 181.562C277.064 171.366 273.013 161.587 265.803 154.377C258.593 147.168 248.815 143.117 238.618 143.117C228.422 143.117 218.643 147.168 211.433 154.377C204.223 161.587 200.173 171.366 200.173 181.562Z" fill="white"/>
<path d="M200.729 175.019C199.779 180.539 200.046 186.2 201.513 191.606C202.979 197.012 205.609 202.032 209.218 206.315C212.827 210.598 217.328 214.041 222.407 216.403C227.486 218.765 233.019 219.989 238.62 219.989C244.221 219.989 249.755 218.765 254.834 216.403C259.912 214.041 264.414 210.598 268.023 206.315C271.632 202.032 274.261 197.012 275.728 191.606C277.194 186.2 277.462 180.539 276.512 175.019C275.036 184.004 270.415 192.172 263.475 198.065C256.534 203.958 247.725 207.194 238.62 207.194C229.515 207.194 220.706 203.958 213.766 198.065C206.825 192.172 202.205 184.004 200.729 175.019Z" fill="#DAEDF7"/>
<path d="M200.173 181.562C200.173 191.759 204.223 201.538 211.433 208.747C218.643 215.957 228.422 220.008 238.618 220.008C248.815 220.008 258.593 215.957 265.803 208.747C273.013 201.538 277.064 191.759 277.064 181.562C277.064 171.366 273.013 161.587 265.803 154.377C258.593 147.168 248.815 143.117 238.618 143.117C228.422 143.117 218.643 147.168 211.433 154.377C204.223 161.587 200.173 171.366 200.173 181.562Z" stroke="#45413C" stroke-width="3.1" stroke-linecap="round" stroke-linejoin="round"/>
<path d="M240.171 207.674C239.97 207.884 239.729 208.052 239.462 208.166C239.195 208.28 238.907 208.339 238.616 208.339C238.326 208.339 238.038 208.28 237.771 208.166C237.504 208.052 237.263 207.884 237.062 207.674L218.43 188.247C216.657 186.475 215.487 184.19 215.086 181.715C214.684 179.241 215.072 176.703 216.193 174.461C217.039 172.768 218.275 171.3 219.8 170.179C221.325 169.058 223.094 168.315 224.963 168.012C226.831 167.709 228.745 167.854 230.546 168.436C232.347 169.018 233.984 170.02 235.322 171.358L238.618 174.655L241.914 171.358C243.252 170.02 244.889 169.019 246.69 168.438C248.491 167.856 250.405 167.711 252.273 168.014C254.141 168.317 255.91 169.059 257.435 170.18C258.96 171.301 260.197 172.769 261.043 174.461C262.164 176.703 262.551 179.241 262.149 181.715C261.748 184.189 260.578 186.475 258.806 188.247L240.171 207.674Z" fill="#FF6242" stroke="#E04122" stroke-width="3.1" stroke-linecap="round" stroke-linejoin="round"/>
<path d="M160.414 201.459L159.686 197.714C159.561 197.068 159.309 196.452 158.945 195.902C158.581 195.353 158.113 194.88 157.567 194.512C157.02 194.143 156.407 193.886 155.761 193.755C155.115 193.623 154.45 193.62 153.803 193.746L145.793 195.302C144.225 195.587 142.814 196.43 141.818 197.674C140.823 198.918 140.311 200.48 140.376 202.072C140.472 203.641 140.677 205.201 140.99 206.74C141.404 205.476 142.149 204.346 143.147 203.468C144.146 202.589 145.361 201.994 146.668 201.744L155.537 200.022C156.406 199.854 157.302 199.896 158.15 200.146C158.999 200.396 159.775 200.846 160.414 201.459Z" fill="#FFDCD1"/>
<path d="M140.371 202.072C140.305 200.479 140.818 198.917 141.815 197.672C142.812 196.428 144.225 195.586 145.794 195.302L153.81 193.746C154.457 193.62 155.122 193.623 155.768 193.755C156.414 193.886 157.027 194.143 157.573 194.512C158.12 194.88 158.588 195.353 158.952 195.902C159.316 196.452 159.568 197.068 159.693 197.714L161.611 207.569C161.737 208.216 161.734 208.882 161.603 209.528C161.471 210.174 161.214 210.788 160.845 211.335C160.476 211.881 160.003 212.35 159.453 212.714C158.904 213.078 158.287 213.33 157.64 213.455L149.627 215.014C148.067 215.337 146.442 215.084 145.053 214.304C143.664 213.523 142.604 212.267 142.068 210.767C141.132 207.953 140.561 205.031 140.371 202.072Z" stroke="#45413C" stroke-width="3.1" stroke-linecap="round" stroke-linejoin="round"/>
<path d="M83.3853 175.49C83.5871 180.746 85.1083 185.866 87.8087 190.38C90.5091 194.894 94.3019 198.655 98.8377 201.318C99.1913 201.536 99.5855 201.68 99.9963 201.741C100.407 201.802 100.826 201.779 101.228 201.674C101.63 201.568 102.006 201.382 102.333 201.127C102.661 200.872 102.934 200.553 103.134 200.189L109.788 188.103L116.837 199.081C117.118 199.458 117.481 199.765 117.899 199.979C118.317 200.193 118.779 200.309 119.248 200.317C119.718 200.324 120.183 200.224 120.608 200.024C121.033 199.823 121.406 199.528 121.699 199.161C123.954 196.334 126.155 189.417 122.561 180.44" stroke="#45413C" stroke-width="3.1" stroke-linecap="round" stroke-linejoin="round"/>
<path d="M72.9756 117.289C72.9715 117.285 72.9682 117.28 72.966 117.275C72.9638 117.27 72.9627 117.264 72.9627 117.258C72.9627 117.253 72.9638 117.247 72.966 117.242C72.9682 117.237 72.9715 117.232 72.9756 117.228C74.1506 113.42 76.0936 109.894 78.6847 106.866C81.2758 103.839 84.46 101.375 88.0407 99.6265C91.6213 97.8779 95.5224 96.8818 99.503 96.6998C103.484 96.5178 107.459 97.1537 111.185 98.5683C112.402 99.0162 113.582 99.5601 114.714 100.195C115.041 103.841 114.073 107.485 111.979 110.488C109.886 113.491 106.801 115.66 103.267 116.614L92.6478 120.143V122.476C92.6395 125.272 92.0539 128.037 90.9278 130.596C89.8018 133.156 88.1594 135.455 86.1036 137.351C84.0478 139.247 81.6229 140.697 78.9805 141.613C76.3382 142.528 73.5353 142.888 70.7475 142.67L67.0493 129.645L72.9756 117.289Z" fill="#FFE500"/>
<path d="M114.714 100.194C115.041 103.84 114.072 107.485 111.979 110.487C109.885 113.49 106.8 115.659 103.266 116.613L92.6475 120.142V122.475C92.6391 125.271 92.0535 128.036 90.9274 130.595C89.8014 133.155 88.159 135.455 86.1032 137.35C84.0474 139.246 81.6225 140.697 78.9801 141.612C76.3378 142.527 73.5349 142.887 70.7471 142.669" stroke="#45413C" stroke-width="3.1" stroke-linecap="round" stroke-linejoin="round"/>
</svg>
